<svg width="1181" height="40" viewBox="0 0 1181 40" fill="none" xmlns="http://www.w3.org/2000/svg">
<path d="M9.47675 20.8636H18.3844V29.5H14.7128L14.2748 25.8076C13.8575 27.1288 13.1135 28.1093 12.0426 28.749C10.9718 29.3887 9.66449 29.7086 8.12079 29.7086C6.71615 29.7086 5.46449 29.3957 4.36582 28.7699C3.28105 28.144 2.42575 27.247 1.79993 26.0788C1.188 24.9106 0.882045 23.5477 0.882045 21.9901C0.882045 19.5007 1.62608 17.5328 3.11416 16.0864C4.60224 14.6401 6.91781 13.9169 10.0609 13.9169C11.8549 13.9169 13.4334 14.2089 14.7963 14.793C16.1731 15.3772 17.3413 16.2811 18.3009 17.505C17.6751 17.8248 16.4512 18.4646 14.6294 19.4242L14.1079 19.7162C13.5655 19.1738 12.9327 18.7705 12.2095 18.5063C11.4863 18.2281 10.7214 18.0891 9.91483 18.0891C8.57973 18.0891 7.58536 18.4437 6.93171 19.153C6.27807 19.8483 5.95125 20.7106 5.95125 21.7397C5.95125 22.8523 6.29893 23.7493 6.9943 24.4308C7.70357 25.1123 8.78138 25.453 10.2277 25.453C10.8536 25.453 11.4585 25.3626 12.0426 25.1818C12.6407 25.001 13.1413 24.6881 13.5446 24.243H9.47675V20.8636ZM24.5372 21.1556C24.5233 21.9901 24.5163 23.2695 24.5163 24.994C24.5163 27.0662 24.5302 28.5682 24.5581 29.5H19.6349L19.6557 27.1427C19.6836 24.556 19.6975 22.5603 19.6975 21.1556C19.6975 19.8205 19.6836 17.9291 19.6557 15.4815L19.6349 13.2285H24.5581C24.5302 15.2033 24.5163 16.8166 24.5163 18.0682C24.5163 19.4589 24.5233 20.4881 24.5372 21.1556ZM32.5354 29.7086C30.1573 29.7086 28.4049 29.1662 27.2784 28.0815C26.1659 26.9828 25.6096 25.5434 25.6096 23.7632C25.6096 22.0248 26.1659 20.6132 27.2784 19.5285C28.4049 18.4437 30.1573 17.9013 32.5354 17.9013C34.1347 17.9013 35.4698 18.1656 36.5407 18.694C37.6255 19.2086 38.4251 19.9109 38.9397 20.801C39.4543 21.6772 39.7116 22.6646 39.7116 23.7632C39.7116 25.5573 39.1135 26.9967 37.9175 28.0815C36.7354 29.1662 34.9414 29.7086 32.5354 29.7086ZM32.6188 26.1623C33.5228 26.1623 34.1973 25.9467 34.6424 25.5156C35.0874 25.0844 35.3099 24.5073 35.3099 23.7841C35.3099 23.1026 35.0874 22.5464 34.6424 22.1152C34.1973 21.6702 33.5228 21.4477 32.6188 21.4477C31.7149 21.4477 31.0543 21.6632 30.6371 22.0944C30.2198 22.5255 30.0112 23.0887 30.0112 23.7841C30.0112 24.5073 30.2198 25.0844 30.6371 25.5156C31.0543 25.9467 31.7149 26.1623 32.6188 26.1623ZM49.8151 17.9013C50.7469 17.9013 51.5744 18.1864 52.2975 18.7566C53.0346 19.3129 53.6048 20.057 54.0081 20.9887C54.4115 21.9066 54.6131 22.8871 54.6131 23.9301C54.6131 24.9871 54.4115 25.9606 54.0081 26.8507C53.6048 27.7268 53.0416 28.4222 52.3184 28.9368C51.5952 29.4513 50.7816 29.7086 49.8777 29.7086C48.8207 29.7086 47.9028 29.4861 47.124 29.0411C46.3452 28.5821 45.7611 27.8659 45.3717 26.8924L44.7667 29.5H40.7615C40.8449 26.8854 40.8866 24.1805 40.8866 21.3851C40.8866 18.5619 40.8449 15.857 40.7615 13.2702H45.476L45.4134 15.8361C45.3439 17.644 45.3091 19.2573 45.3091 20.6758C45.6846 19.7301 46.2548 19.0348 47.0197 18.5897C47.7985 18.1308 48.7303 17.9013 49.8151 17.9013ZM47.6873 26.204C48.3548 26.204 48.8833 25.9815 49.2727 25.5364C49.6621 25.0914 49.8568 24.5142 49.8568 23.805C49.8568 23.1652 49.6413 22.6507 49.2101 22.2613C48.7929 21.8579 48.2714 21.6563 47.6456 21.6563C47.3257 21.6563 46.9919 21.7328 46.6442 21.8858C46.2965 22.0248 45.9975 22.2613 45.7472 22.595C45.4969 22.9149 45.3717 23.3182 45.3717 23.805C45.3717 24.6672 45.5664 25.2861 45.9558 25.6616C46.3452 26.0232 46.9224 26.204 47.6873 26.204ZM69.2396 26.0371C69.2396 26.5099 69.2952 26.8437 69.4064 27.0384C69.5177 27.2331 69.7402 27.3722 70.074 27.4556L69.9905 29.4166C69.5455 29.4861 69.1561 29.5348 68.8223 29.5626C68.5025 29.5904 68.0713 29.6043 67.529 29.6043C66.3329 29.6043 65.5402 29.3401 65.1508 28.8116C64.7614 28.2692 64.5667 27.5808 64.5667 26.7464V26.2248C64.1634 27.3652 63.5723 28.2136 62.7935 28.7699C62.0286 29.3262 61.0482 29.6043 59.8521 29.6043C58.4614 29.6043 57.4114 29.3262 56.7021 28.7699C56.0068 28.2136 55.6591 27.3861 55.6591 26.2874C55.6591 25.3834 55.9581 24.6742 56.5561 24.1596C57.1541 23.645 58.079 23.2904 59.3306 23.0957C58.2737 22.3447 57.2167 21.6911 56.1598 21.1348C56.9942 20.0778 57.9468 19.2781 59.0177 18.7358C60.0886 18.1795 61.3889 17.9013 62.9187 17.9013C65.0604 17.9013 66.6458 18.3672 67.675 19.299C68.718 20.2169 69.2396 21.6354 69.2396 23.5546V26.0371ZM63.3568 21.5728C62.6475 21.5728 62.0217 21.6911 61.4793 21.9275C60.9369 22.1639 60.4501 22.5185 60.019 22.9914C60.8535 22.894 61.8965 22.8454 63.1482 22.8454C63.6627 22.8454 64.0243 22.7828 64.2329 22.6576C64.4415 22.5325 64.5458 22.3725 64.5458 22.1778C64.5458 22.0109 64.4415 21.8719 64.2329 21.7606C64.0243 21.6354 63.7323 21.5728 63.3568 21.5728ZM61.1664 26.204C61.9452 26.204 62.6475 26.0579 63.2733 25.7659C63.8992 25.4599 64.3303 25.0636 64.5667 24.5768V24.0344C64.2329 24.2013 63.8644 24.3334 63.4611 24.4308C63.0578 24.5142 62.571 24.5977 62.0008 24.6811L61.2498 24.8063C60.471 24.9593 60.0816 25.2235 60.0816 25.599C60.0816 26.0023 60.4432 26.204 61.1664 26.204ZM75.8151 21.1556C75.8012 21.9901 75.7943 23.2695 75.7943 24.994C75.7943 27.0662 75.8082 28.5682 75.836 29.5H70.9128L70.9337 27.1427C70.9615 24.556 70.9754 22.5603 70.9754 21.1556C70.9754 19.8205 70.9615 17.9291 70.9337 15.4815L70.9128 13.2285H75.836C75.8082 15.2033 75.7943 16.8166 75.7943 18.0682C75.7943 19.4589 75.8012 20.4881 75.8151 21.1556ZM95.0157 18.7358C92.8322 18.6662 90.7114 18.6245 88.6531 18.6106V29.5H83.4379V18.6106C81.3657 18.6245 79.2518 18.6662 77.0961 18.7358V14.355H95.0157V18.7358ZM107.143 26.0371C107.143 26.5099 107.199 26.8437 107.31 27.0384C107.421 27.2331 107.644 27.3722 107.977 27.4556L107.894 29.4166C107.449 29.4861 107.059 29.5348 106.726 29.5626C106.406 29.5904 105.975 29.6043 105.432 29.6043C104.236 29.6043 103.444 29.3401 103.054 28.8116C102.665 28.2692 102.47 27.5808 102.47 26.7464V26.2248C102.067 27.3652 101.476 28.2136 100.697 28.7699C99.9319 29.3262 98.9515 29.6043 97.7555 29.6043C96.3647 29.6043 95.3147 29.3262 94.6055 28.7699C93.9101 28.2136 93.5624 27.3861 93.5624 26.2874C93.5624 25.3834 93.8614 24.6742 94.4594 24.1596C95.0574 23.645 95.9823 23.2904 97.2339 23.0957C96.177 22.3447 95.12 21.6911 94.0631 21.1348C94.8975 20.0778 95.8502 19.2781 96.921 18.7358C97.9919 18.1795 99.2922 17.9013 100.822 17.9013C102.964 17.9013 104.549 18.3672 105.578 19.299C106.621 20.2169 107.143 21.6354 107.143 23.5546V26.0371ZM101.26 21.5728C100.551 21.5728 99.925 21.6911 99.3826 21.9275C98.8402 22.1639 98.3535 22.5185 97.9223 22.9914C98.7568 22.894 99.7998 22.8454 101.051 22.8454C101.566 22.8454 101.928 22.7828 102.136 22.6576C102.345 22.5325 102.449 22.3725 102.449 22.1778C102.449 22.0109 102.345 21.8719 102.136 21.7606C101.928 21.6354 101.636 21.5728 101.26 21.5728ZM99.0697 26.204C99.8485 26.204 100.551 26.0579 101.177 25.7659C101.802 25.4599 102.234 25.0636 102.47 24.5768V24.0344C102.136 24.2013 101.768 24.3334 101.364 24.4308C100.961 24.5142 100.474 24.5977 99.9041 24.6811L99.1531 24.8063C98.3743 24.9593 97.9849 25.2235 97.9849 25.599C97.9849 26.0023 98.3465 26.204 99.0697 26.204ZM113.718 21.1556C113.705 21.9901 113.698 23.2695 113.698 24.994C113.698 27.0662 113.712 28.5682 113.739 29.5H108.816L108.837 27.1427C108.865 24.556 108.879 22.5603 108.879 21.1556C108.879 19.8205 108.865 17.9291 108.837 15.4815L108.816 13.2285H113.739C113.712 15.2033 113.698 16.8166 113.698 18.0682C113.698 19.4589 113.705 20.4881 113.718 21.1556ZM129.727 18.0891L124.554 22.8036C126.32 25.307 127.968 27.5391 129.498 29.5H123.97L122.906 27.7894C122.21 26.6351 121.751 25.8841 121.529 25.5364L119.797 27.1219V29.5H114.999C115.111 26.8576 115.166 24.1805 115.166 21.4685C115.166 18.7427 115.111 16.0099 114.999 13.2702H119.797V22.1152C121.146 20.7384 122.419 19.3964 123.615 18.0891H129.727Z" fill="black"/>
<path d="M160.048 11.5674V28.4326" stroke="#E0E0E0" stroke-width="1.20466"/>
<path d="M199.424 14.8H201.504V26H199.424V14.8ZM193.632 26H191.552V14.8H193.632V26ZM199.584 21.2H193.456V19.424H199.584V21.2ZM207.513 26.112C206.638 26.112 205.859 25.9253 205.177 25.552C204.494 25.168 203.955 24.6453 203.561 23.984C203.166 23.3227 202.969 22.5707 202.969 21.728C202.969 20.8747 203.166 20.1227 203.561 19.472C203.955 18.8107 204.494 18.2933 205.177 17.92C205.859 17.5467 206.638 17.36 207.513 17.36C208.398 17.36 209.182 17.5467 209.865 17.92C210.558 18.2933 211.097 18.8053 211.481 19.456C211.875 20.1067 212.073 20.864 212.073 21.728C212.073 22.5707 211.875 23.3227 211.481 23.984C211.097 24.6453 210.558 25.168 209.865 25.552C209.182 25.9253 208.398 26.112 207.513 26.112ZM207.513 24.4C208.003 24.4 208.441 24.2933 208.825 24.08C209.209 23.8667 209.507 23.5573 209.721 23.152C209.945 22.7467 210.057 22.272 210.057 21.728C210.057 21.1733 209.945 20.6987 209.721 20.304C209.507 19.8987 209.209 19.5893 208.825 19.376C208.441 19.1627 208.009 19.056 207.529 19.056C207.038 19.056 206.601 19.1627 206.217 19.376C205.843 19.5893 205.545 19.8987 205.321 20.304C205.097 20.6987 204.985 21.1733 204.985 21.728C204.985 22.272 205.097 22.7467 205.321 23.152C205.545 23.5573 205.843 23.8667 206.217 24.08C206.601 24.2933 207.033 24.4 207.513 24.4ZM224.129 17.36C224.812 17.36 225.415 17.4933 225.937 17.76C226.471 18.0267 226.887 18.4373 227.185 18.992C227.484 19.536 227.633 20.24 227.633 21.104V26H225.633V21.36C225.633 20.6027 225.468 20.0373 225.137 19.664C224.807 19.2907 224.332 19.104 223.713 19.104C223.276 19.104 222.887 19.2 222.545 19.392C222.215 19.584 221.953 19.8667 221.761 20.24C221.58 20.6133 221.489 21.088 221.489 21.664V26H219.489V21.36C219.489 20.6027 219.324 20.0373 218.993 19.664C218.663 19.2907 218.188 19.104 217.569 19.104C217.132 19.104 216.743 19.2 216.401 19.392C216.071 19.584 215.809 19.8667 215.617 20.24C215.436 20.6133 215.345 21.088 215.345 21.664V26H213.345V17.456H215.249V19.728L214.913 19.056C215.201 18.5013 215.617 18.08 216.161 17.792C216.716 17.504 217.345 17.36 218.049 17.36C218.849 17.36 219.543 17.5573 220.129 17.952C220.727 18.3467 221.121 18.944 221.313 19.744L220.529 19.472C220.807 18.832 221.265 18.32 221.905 17.936C222.545 17.552 223.287 17.36 224.129 17.36ZM233.581 26.112C232.631 26.112 231.799 25.9253 231.085 25.552C230.381 25.168 229.831 24.6453 229.437 23.984C229.053 23.3227 228.861 22.5707 228.861 21.728C228.861 20.8747 229.047 20.1227 229.421 19.472C229.805 18.8107 230.327 18.2933 230.989 17.92C231.661 17.5467 232.423 17.36 233.277 17.36C234.109 17.36 234.85 17.5413 235.501 17.904C236.151 18.2667 236.663 18.7787 237.037 19.44C237.41 20.1013 237.597 20.88 237.597 21.776C237.597 21.8613 237.591 21.9573 237.581 22.064C237.581 22.1707 237.575 22.272 237.565 22.368H230.445V21.04H236.509L235.725 21.456C235.735 20.9653 235.634 20.5333 235.421 20.16C235.207 19.7867 234.914 19.4933 234.541 19.28C234.178 19.0667 233.757 18.96 233.277 18.96C232.786 18.96 232.354 19.0667 231.981 19.28C231.618 19.4933 231.33 19.792 231.117 20.176C230.914 20.5493 230.813 20.992 230.813 21.504V21.824C230.813 22.336 230.93 22.7893 231.165 23.184C231.399 23.5787 231.73 23.8827 232.157 24.096C232.583 24.3093 233.074 24.416 233.629 24.416C234.109 24.416 234.541 24.3413 234.925 24.192C235.309 24.0427 235.65 23.808 235.949 23.488L237.021 24.72C236.637 25.168 236.151 25.5147 235.565 25.76C234.989 25.9947 234.327 26.112 233.581 26.112Z" fill="black"/>
<path d="M272.824 26V16.56H269.112V14.8H278.616V16.56H274.904V26H272.824ZM282.486 26.112C281.536 26.112 280.704 25.9253 279.99 25.552C279.286 25.168 278.736 24.6453 278.342 23.984C277.958 23.3227 277.766 22.5707 277.766 21.728C277.766 20.8747 277.952 20.1227 278.326 19.472C278.71 18.8107 279.232 18.2933 279.894 17.92C280.566 17.5467 281.328 17.36 282.182 17.36C283.014 17.36 283.755 17.5413 284.406 17.904C285.056 18.2667 285.568 18.7787 285.942 19.44C286.315 20.1013 286.502 20.88 286.502 21.776C286.502 21.8613 286.496 21.9573 286.486 22.064C286.486 22.1707 286.48 22.272 286.47 22.368H279.35V21.04H285.414L284.63 21.456C284.64 20.9653 284.539 20.5333 284.326 20.16C284.112 19.7867 283.819 19.4933 283.446 19.28C283.083 19.0667 282.662 18.96 282.182 18.96C281.691 18.96 281.259 19.0667 280.886 19.28C280.523 19.4933 280.235 19.792 280.022 20.176C279.819 20.5493 279.718 20.992 279.718 21.504V21.824C279.718 22.336 279.835 22.7893 280.07 23.184C280.304 23.5787 280.635 23.8827 281.062 24.096C281.488 24.3093 281.979 24.416 282.534 24.416C283.014 24.416 283.446 24.3413 283.83 24.192C284.214 24.0427 284.555 23.808 284.854 23.488L285.926 24.72C285.542 25.168 285.056 25.5147 284.47 25.76C283.894 25.9947 283.232 26.112 282.486 26.112ZM286.38 26L290.14 21.104L290.108 22.176L286.524 17.456H288.748L291.26 20.816H290.412L292.94 17.456H295.1L291.484 22.176L291.5 21.104L295.244 26H292.988L290.348 22.432L291.18 22.544L288.588 26H286.38ZM299.296 26.112C298.358 26.112 297.632 25.872 297.12 25.392C296.608 24.9013 296.352 24.1813 296.352 23.232V15.568H298.352V23.184C298.352 23.5893 298.454 23.904 298.656 24.128C298.87 24.352 299.163 24.464 299.536 24.464C299.984 24.464 300.358 24.3467 300.656 24.112L301.216 25.536C300.982 25.728 300.694 25.872 300.352 25.968C300.011 26.064 299.659 26.112 299.296 26.112ZM294.944 19.12V17.52H300.64V19.12H294.944ZM306.957 26.112C306.232 26.112 305.587 25.952 305.021 25.632C304.456 25.312 304.008 24.832 303.677 24.192C303.357 23.5413 303.197 22.72 303.197 21.728C303.197 20.7253 303.363 19.904 303.693 19.264C304.035 18.624 304.488 18.1493 305.053 17.84C305.629 17.52 306.264 17.36 306.957 17.36C307.8 17.36 308.541 17.5413 309.181 17.904C309.832 18.2667 310.344 18.7733 310.717 19.424C311.101 20.0747 311.293 20.8427 311.293 21.728C311.293 22.6133 311.101 23.3813 310.717 24.032C310.344 24.6827 309.832 25.1947 309.181 25.568C308.541 25.9307 307.8 26.112 306.957 26.112ZM302.221 26V14.128H304.221V19.44L304.061 21.712L304.125 23.984V26H302.221ZM306.733 24.4C307.213 24.4 307.64 24.2933 308.013 24.08C308.397 23.8667 308.701 23.5573 308.925 23.152C309.149 22.7467 309.261 22.272 309.261 21.728C309.261 21.1733 309.149 20.6987 308.925 20.304C308.701 19.8987 308.397 19.5893 308.013 19.376C307.64 19.1627 307.213 19.056 306.733 19.056C306.253 19.056 305.821 19.1627 305.437 19.376C305.053 19.5893 304.749 19.8987 304.525 20.304C304.301 20.6987 304.189 21.1733 304.189 21.728C304.189 22.272 304.301 22.7467 304.525 23.152C304.749 23.5573 305.053 23.8667 305.437 24.08C305.821 24.2933 306.253 24.4 306.733 24.4ZM316.39 26.112C315.516 26.112 314.737 25.9253 314.054 25.552C313.372 25.168 312.833 24.6453 312.438 23.984C312.044 23.3227 311.846 22.5707 311.846 21.728C311.846 20.8747 312.044 20.1227 312.438 19.472C312.833 18.8107 313.372 18.2933 314.054 17.92C314.737 17.5467 315.516 17.36 316.39 17.36C317.276 17.36 318.06 17.5467 318.742 17.92C319.436 18.2933 319.974 18.8053 320.358 19.456C320.753 20.1067 320.95 20.864 320.95 21.728C320.95 22.5707 320.753 23.3227 320.358 23.984C319.974 24.6453 319.436 25.168 318.742 25.552C318.06 25.9253 317.276 26.112 316.39 26.112ZM316.39 24.4C316.881 24.4 317.318 24.2933 317.702 24.08C318.086 23.8667 318.385 23.5573 318.598 23.152C318.822 22.7467 318.934 22.272 318.934 21.728C318.934 21.1733 318.822 20.6987 318.598 20.304C318.385 19.8987 318.086 19.5893 317.702 19.376C317.318 19.1627 316.886 19.056 316.406 19.056C315.916 19.056 315.478 19.1627 315.094 19.376C314.721 19.5893 314.422 19.8987 314.198 20.304C313.974 20.6987 313.862 21.1733 313.862 21.728C313.862 22.272 313.974 22.7467 314.198 23.152C314.422 23.5573 314.721 23.8667 315.094 24.08C315.478 24.2933 315.91 24.4 316.39 24.4ZM326.063 26.112C325.188 26.112 324.409 25.9253 323.727 25.552C323.044 25.168 322.505 24.6453 322.111 23.984C321.716 23.3227 321.519 22.5707 321.519 21.728C321.519 20.8747 321.716 20.1227 322.111 19.472C322.505 18.8107 323.044 18.2933 323.727 17.92C324.409 17.5467 325.188 17.36 326.063 17.36C326.948 17.36 327.732 17.5467 328.415 17.92C329.108 18.2933 329.647 18.8053 330.031 19.456C330.425 20.1067 330.623 20.864 330.623 21.728C330.623 22.5707 330.425 23.3227 330.031 23.984C329.647 24.6453 329.108 25.168 328.415 25.552C327.732 25.9253 326.948 26.112 326.063 26.112ZM326.063 24.4C326.553 24.4 326.991 24.2933 327.375 24.08C327.759 23.8667 328.057 23.5573 328.271 23.152C328.495 22.7467 328.607 22.272 328.607 21.728C328.607 21.1733 328.495 20.6987 328.271 20.304C328.057 19.8987 327.759 19.5893 327.375 19.376C326.991 19.1627 326.559 19.056 326.079 19.056C325.588 19.056 325.151 19.1627 324.767 19.376C324.393 19.5893 324.095 19.8987 323.871 20.304C323.647 20.6987 323.535 21.1733 323.535 21.728C323.535 22.272 323.647 22.7467 323.871 23.152C324.095 23.5573 324.393 23.8667 324.767 24.08C325.151 24.2933 325.583 24.4 326.063 24.4ZM333.527 24.096L333.575 21.584L338.039 17.456H340.439L336.647 21.264L335.591 22.144L333.527 24.096ZM331.895 26V14.128H333.895V26H331.895ZM338.343 26L335.223 22.144L336.487 20.544L340.775 26H338.343Z" fill="#757575"/>
<path d="M376.024 26.16C375.149 26.16 374.312 26.0373 373.512 25.792C372.712 25.536 372.077 25.2107 371.608 24.816L372.328 23.2C372.776 23.552 373.33 23.8453 373.992 24.08C374.653 24.3147 375.33 24.432 376.024 24.432C376.61 24.432 377.085 24.368 377.448 24.24C377.81 24.112 378.077 23.9413 378.248 23.728C378.418 23.504 378.504 23.2533 378.504 22.976C378.504 22.6347 378.381 22.3627 378.136 22.16C377.89 21.9467 377.57 21.7813 377.176 21.664C376.792 21.536 376.36 21.4187 375.88 21.312C375.41 21.2053 374.936 21.0827 374.456 20.944C373.986 20.7947 373.554 20.608 373.16 20.384C372.776 20.1493 372.461 19.84 372.216 19.456C371.97 19.072 371.848 18.5813 371.848 17.984C371.848 17.376 372.008 16.8213 372.328 16.32C372.658 15.808 373.154 15.4027 373.816 15.104C374.488 14.7947 375.336 14.64 376.36 14.64C377.032 14.64 377.698 14.7253 378.36 14.896C379.021 15.0667 379.597 15.312 380.088 15.632L379.432 17.248C378.93 16.9493 378.413 16.7307 377.88 16.592C377.346 16.4427 376.834 16.368 376.344 16.368C375.768 16.368 375.298 16.4373 374.936 16.576C374.584 16.7147 374.322 16.896 374.152 17.12C373.992 17.344 373.912 17.6 373.912 17.888C373.912 18.2293 374.029 18.5067 374.264 18.72C374.509 18.9227 374.824 19.0827 375.208 19.2C375.602 19.3173 376.04 19.4347 376.52 19.552C377 19.6587 377.474 19.7813 377.944 19.92C378.424 20.0587 378.856 20.24 379.24 20.464C379.634 20.688 379.949 20.992 380.184 21.376C380.429 21.76 380.552 22.2453 380.552 22.832C380.552 23.4293 380.386 23.984 380.056 24.496C379.736 24.9973 379.24 25.4027 378.568 25.712C377.896 26.0107 377.048 26.16 376.024 26.16ZM384.998 26.112C384.059 26.112 383.334 25.872 382.822 25.392C382.31 24.9013 382.054 24.1813 382.054 23.232V15.568H384.054V23.184C384.054 23.5893 384.155 23.904 384.358 24.128C384.571 24.352 384.865 24.464 385.238 24.464C385.686 24.464 386.059 24.3467 386.358 24.112L386.918 25.536C386.683 25.728 386.395 25.872 386.054 25.968C385.713 26.064 385.361 26.112 384.998 26.112ZM380.646 19.12V17.52H386.342V19.12H380.646ZM393.187 26V24.272L393.075 23.904V20.88C393.075 20.2933 392.899 19.84 392.547 19.52C392.195 19.1893 391.662 19.024 390.947 19.024C390.467 19.024 389.993 19.0987 389.523 19.248C389.065 19.3973 388.675 19.6053 388.355 19.872L387.571 18.416C388.03 18.064 388.574 17.8027 389.203 17.632C389.843 17.4507 390.505 17.36 391.187 17.36C392.425 17.36 393.379 17.6587 394.051 18.256C394.734 18.8427 395.075 19.7547 395.075 20.992V26H393.187ZM390.499 26.112C389.859 26.112 389.299 26.0053 388.819 25.792C388.339 25.568 387.966 25.264 387.699 24.88C387.443 24.4853 387.315 24.0427 387.315 23.552C387.315 23.072 387.427 22.64 387.651 22.256C387.886 21.872 388.265 21.568 388.787 21.344C389.31 21.12 390.003 21.008 390.867 21.008H393.347V22.336H391.011C390.329 22.336 389.87 22.448 389.635 22.672C389.401 22.8853 389.283 23.152 389.283 23.472C389.283 23.8347 389.427 24.1227 389.715 24.336C390.003 24.5493 390.403 24.656 390.915 24.656C391.406 24.656 391.843 24.544 392.227 24.32C392.622 24.096 392.905 23.7653 393.075 23.328L393.411 24.528C393.219 25.0293 392.873 25.4187 392.371 25.696C391.881 25.9733 391.257 26.112 390.499 26.112ZM400.218 26.112C399.279 26.112 398.554 25.872 398.042 25.392C397.53 24.9013 397.274 24.1813 397.274 23.232V15.568H399.274V23.184C399.274 23.5893 399.375 23.904 399.578 24.128C399.791 24.352 400.085 24.464 400.458 24.464C400.906 24.464 401.279 24.3467 401.578 24.112L402.138 25.536C401.903 25.728 401.615 25.872 401.274 25.968C400.933 26.064 400.581 26.112 400.218 26.112ZM395.866 19.12V17.52H401.562V19.12H395.866ZM403.143 26V17.456H405.143V26H403.143ZM404.151 16.048C403.778 16.048 403.469 15.9307 403.223 15.696C402.989 15.4613 402.871 15.1787 402.871 14.848C402.871 14.5067 402.989 14.224 403.223 14C403.469 13.7653 403.778 13.648 404.151 13.648C404.525 13.648 404.829 13.76 405.063 13.984C405.309 14.1973 405.431 14.4693 405.431 14.8C405.431 15.152 405.314 15.4507 405.079 15.696C404.845 15.9307 404.535 16.048 404.151 16.048ZM409.768 26.112C409.054 26.112 408.366 26.0213 407.704 25.84C407.054 25.648 406.536 25.4187 406.152 25.152L406.92 23.632C407.304 23.8773 407.763 24.08 408.296 24.24C408.83 24.4 409.363 24.48 409.896 24.48C410.526 24.48 410.979 24.3947 411.256 24.224C411.544 24.0533 411.688 23.824 411.688 23.536C411.688 23.3013 411.592 23.1253 411.4 23.008C411.208 22.88 410.958 22.784 410.648 22.72C410.339 22.656 409.992 22.5973 409.608 22.544C409.235 22.4907 408.856 22.4213 408.472 22.336C408.099 22.24 407.758 22.1067 407.448 21.936C407.139 21.7547 406.888 21.5147 406.696 21.216C406.504 20.9173 406.408 20.5227 406.408 20.032C406.408 19.488 406.563 19.0187 406.872 18.624C407.182 18.2187 407.614 17.9093 408.168 17.696C408.734 17.472 409.4 17.36 410.168 17.36C410.744 17.36 411.326 17.424 411.912 17.552C412.499 17.68 412.984 17.8613 413.368 18.096L412.6 19.616C412.195 19.3707 411.784 19.2053 411.368 19.12C410.963 19.024 410.558 18.976 410.152 18.976C409.544 18.976 409.091 19.0667 408.792 19.248C408.504 19.4293 408.36 19.6587 408.36 19.936C408.36 20.192 408.456 20.384 408.648 20.512C408.84 20.64 409.091 20.7413 409.4 20.816C409.71 20.8907 410.051 20.9547 410.424 21.008C410.808 21.0507 411.187 21.12 411.56 21.216C411.934 21.312 412.275 21.4453 412.584 21.616C412.904 21.776 413.16 22.0053 413.352 22.304C413.544 22.6027 413.64 22.992 413.64 23.472C413.64 24.0053 413.48 24.4693 413.16 24.864C412.851 25.2587 412.408 25.568 411.832 25.792C411.256 26.0053 410.568 26.112 409.768 26.112ZM417.939 26.112C417 26.112 416.275 25.872 415.763 25.392C415.251 24.9013 414.995 24.1813 414.995 23.232V15.568H416.995V23.184C416.995 23.5893 417.096 23.904 417.299 24.128C417.512 24.352 417.805 24.464 418.179 24.464C418.627 24.464 419 24.3467 419.299 24.112L419.859 25.536C419.624 25.728 419.336 25.872 418.995 25.968C418.653 26.064 418.301 26.112 417.939 26.112ZM413.587 19.12V17.52H419.283V19.12H413.587ZM420.864 26V17.456H422.864V26H420.864ZM421.872 16.048C421.499 16.048 421.189 15.9307 420.944 15.696C420.709 15.4613 420.592 15.1787 420.592 14.848C420.592 14.5067 420.709 14.224 420.944 14C421.189 13.7653 421.499 13.648 421.872 13.648C422.245 13.648 422.549 13.76 422.784 13.984C423.029 14.1973 423.152 14.4693 423.152 14.8C423.152 15.152 423.035 15.4507 422.8 15.696C422.565 15.9307 422.256 16.048 421.872 16.048ZM428.769 26.112C427.873 26.112 427.073 25.9253 426.369 25.552C425.676 25.168 425.132 24.6453 424.737 23.984C424.342 23.3227 424.145 22.5707 424.145 21.728C424.145 20.8747 424.342 20.1227 424.737 19.472C425.132 18.8107 425.676 18.2933 426.369 17.92C427.073 17.5467 427.873 17.36 428.769 17.36C429.601 17.36 430.332 17.5307 430.961 17.872C431.601 18.2027 432.086 18.6933 432.417 19.344L430.881 20.24C430.625 19.8347 430.31 19.536 429.937 19.344C429.574 19.152 429.18 19.056 428.753 19.056C428.262 19.056 427.82 19.1627 427.425 19.376C427.03 19.5893 426.721 19.8987 426.497 20.304C426.273 20.6987 426.161 21.1733 426.161 21.728C426.161 22.2827 426.273 22.7627 426.497 23.168C426.721 23.5627 427.03 23.8667 427.425 24.08C427.82 24.2933 428.262 24.4 428.753 24.4C429.18 24.4 429.574 24.304 429.937 24.112C430.31 23.92 430.625 23.6213 430.881 23.216L432.417 24.112C432.086 24.752 431.601 25.248 430.961 25.6C430.332 25.9413 429.601 26.112 428.769 26.112ZM436.146 26.112C435.431 26.112 434.743 26.0213 434.082 25.84C433.431 25.648 432.914 25.4187 432.53 25.152L433.298 23.632C433.682 23.8773 434.141 24.08 434.674 24.24C435.207 24.4 435.741 24.48 436.274 24.48C436.903 24.48 437.357 24.3947 437.634 24.224C437.922 24.0533 438.066 23.824 438.066 23.536C438.066 23.3013 437.97 23.1253 437.778 23.008C437.586 22.88 437.335 22.784 437.026 22.72C436.717 22.656 436.37 22.5973 435.986 22.544C435.613 22.4907 435.234 22.4213 434.85 22.336C434.477 22.24 434.135 22.1067 433.826 21.936C433.517 21.7547 433.266 21.5147 433.074 21.216C432.882 20.9173 432.786 20.5227 432.786 20.032C432.786 19.488 432.941 19.0187 433.25 18.624C433.559 18.2187 433.991 17.9093 434.546 17.696C435.111 17.472 435.778 17.36 436.546 17.36C437.122 17.36 437.703 17.424 438.29 17.552C438.877 17.68 439.362 17.8613 439.746 18.096L438.978 19.616C438.573 19.3707 438.162 19.2053 437.746 19.12C437.341 19.024 436.935 18.976 436.53 18.976C435.922 18.976 435.469 19.0667 435.17 19.248C434.882 19.4293 434.738 19.6587 434.738 19.936C434.738 20.192 434.834 20.384 435.026 20.512C435.218 20.64 435.469 20.7413 435.778 20.816C436.087 20.8907 436.429 20.9547 436.802 21.008C437.186 21.0507 437.565 21.12 437.938 21.216C438.311 21.312 438.653 21.4453 438.962 21.616C439.282 21.776 439.538 22.0053 439.73 22.304C439.922 22.6027 440.018 22.992 440.018 23.472C440.018 24.0053 439.858 24.4693 439.538 24.864C439.229 25.2587 438.786 25.568 438.21 25.792C437.634 26.0053 436.946 26.112 436.146 26.112Z" fill="#757575"/>
<path d="M477.784 26.16C476.909 26.16 476.104 26.0213 475.368 25.744C474.642 25.456 474.008 25.056 473.464 24.544C472.92 24.0213 472.498 23.408 472.2 22.704C471.901 22 471.752 21.232 471.752 20.4C471.752 19.568 471.901 18.8 472.2 18.096C472.498 17.392 472.92 16.784 473.464 16.272C474.018 15.7493 474.664 15.3493 475.4 15.072C476.136 14.784 476.941 14.64 477.816 14.64C478.765 14.64 479.618 14.7947 480.376 15.104C481.144 15.4133 481.789 15.8667 482.312 16.464L481 17.744C480.562 17.3067 480.088 16.9867 479.576 16.784C479.074 16.5707 478.52 16.464 477.912 16.464C477.325 16.464 476.781 16.56 476.28 16.752C475.778 16.944 475.346 17.216 474.984 17.568C474.621 17.92 474.338 18.336 474.136 18.816C473.944 19.296 473.848 19.824 473.848 20.4C473.848 20.9653 473.944 21.488 474.136 21.968C474.338 22.448 474.621 22.8693 474.984 23.232C475.346 23.584 475.773 23.856 476.264 24.048C476.754 24.24 477.298 24.336 477.896 24.336C478.45 24.336 478.984 24.2507 479.496 24.08C480.018 23.8987 480.514 23.6 480.984 23.184L482.168 24.736C481.581 25.2053 480.898 25.5627 480.12 25.808C479.352 26.0427 478.573 26.16 477.784 26.16ZM480.2 24.464V20.272H482.168V24.736L480.2 24.464ZM489.343 26V24.272L489.231 23.904V20.88C489.231 20.2933 489.055 19.84 488.703 19.52C488.351 19.1893 487.818 19.024 487.103 19.024C486.623 19.024 486.148 19.0987 485.679 19.248C485.22 19.3973 484.831 19.6053 484.511 19.872L483.727 18.416C484.186 18.064 484.73 17.8027 485.359 17.632C485.999 17.4507 486.66 17.36 487.343 17.36C488.58 17.36 489.535 17.6587 490.207 18.256C490.89 18.8427 491.231 19.7547 491.231 20.992V26H489.343ZM486.655 26.112C486.015 26.112 485.455 26.0053 484.975 25.792C484.495 25.568 484.122 25.264 483.855 24.88C483.599 24.4853 483.471 24.0427 483.471 23.552C483.471 23.072 483.583 22.64 483.807 22.256C484.042 21.872 484.42 21.568 484.943 21.344C485.466 21.12 486.159 21.008 487.023 21.008H489.503V22.336H487.167C486.484 22.336 486.026 22.448 485.791 22.672C485.556 22.8853 485.439 23.152 485.439 23.472C485.439 23.8347 485.583 24.1227 485.871 24.336C486.159 24.5493 486.559 24.656 487.071 24.656C487.562 24.656 487.999 24.544 488.383 24.32C488.778 24.096 489.06 23.7653 489.231 23.328L489.567 24.528C489.375 25.0293 489.028 25.4187 488.527 25.696C488.036 25.9733 487.412 26.112 486.655 26.112ZM503.942 17.36C504.624 17.36 505.227 17.4933 505.75 17.76C506.283 18.0267 506.699 18.4373 506.998 18.992C507.296 19.536 507.446 20.24 507.446 21.104V26H505.446V21.36C505.446 20.6027 505.28 20.0373 504.95 19.664C504.619 19.2907 504.144 19.104 503.526 19.104C503.088 19.104 502.699 19.2 502.358 19.392C502.027 19.584 501.766 19.8667 501.574 20.24C501.392 20.6133 501.302 21.088 501.302 21.664V26H499.302V21.36C499.302 20.6027 499.136 20.0373 498.806 19.664C498.475 19.2907 498 19.104 497.382 19.104C496.944 19.104 496.555 19.2 496.214 19.392C495.883 19.584 495.622 19.8667 495.43 20.24C495.248 20.6133 495.158 21.088 495.158 21.664V26H493.158V17.456H495.062V19.728L494.726 19.056C495.014 18.5013 495.43 18.08 495.974 17.792C496.528 17.504 497.158 17.36 497.862 17.36C498.662 17.36 499.355 17.5573 499.942 17.952C500.539 18.3467 500.934 18.944 501.126 19.744L500.342 19.472C500.619 18.832 501.078 18.32 501.718 17.936C502.358 17.552 503.099 17.36 503.942 17.36ZM513.393 26.112C512.444 26.112 511.612 25.9253 510.897 25.552C510.193 25.168 509.644 24.6453 509.249 23.984C508.865 23.3227 508.673 22.5707 508.673 21.728C508.673 20.8747 508.86 20.1227 509.233 19.472C509.617 18.8107 510.14 18.2933 510.801 17.92C511.473 17.5467 512.236 17.36 513.089 17.36C513.921 17.36 514.662 17.5413 515.313 17.904C515.964 18.2667 516.476 18.7787 516.849 19.44C517.222 20.1013 517.409 20.88 517.409 21.776C517.409 21.8613 517.404 21.9573 517.393 22.064C517.393 22.1707 517.388 22.272 517.377 22.368H510.257V21.04H516.321L515.537 21.456C515.548 20.9653 515.446 20.5333 515.233 20.16C515.02 19.7867 514.726 19.4933 514.353 19.28C513.99 19.0667 513.569 18.96 513.089 18.96C512.598 18.96 512.166 19.0667 511.793 19.28C511.43 19.4933 511.142 19.792 510.929 20.176C510.726 20.5493 510.625 20.992 510.625 21.504V21.824C510.625 22.336 510.742 22.7893 510.977 23.184C511.212 23.5787 511.542 23.8827 511.969 24.096C512.396 24.3093 512.886 24.416 513.441 24.416C513.921 24.416 514.353 24.3413 514.737 24.192C515.121 24.0427 515.462 23.808 515.761 23.488L516.833 24.72C516.449 25.168 515.964 25.5147 515.377 25.76C514.801 25.9947 514.14 26.112 513.393 26.112ZM521.33 26.112C520.616 26.112 519.928 26.0213 519.266 25.84C518.616 25.648 518.098 25.4187 517.714 25.152L518.482 23.632C518.866 23.8773 519.325 24.08 519.858 24.24C520.392 24.4 520.925 24.48 521.458 24.48C522.088 24.48 522.541 24.3947 522.818 24.224C523.106 24.0533 523.25 23.824 523.25 23.536C523.25 23.3013 523.154 23.1253 522.962 23.008C522.77 22.88 522.52 22.784 522.21 22.72C521.901 22.656 521.554 22.5973 521.17 22.544C520.797 22.4907 520.418 22.4213 520.034 22.336C519.661 22.24 519.32 22.1067 519.01 21.936C518.701 21.7547 518.45 21.5147 518.258 21.216C518.066 20.9173 517.97 20.5227 517.97 20.032C517.97 19.488 518.125 19.0187 518.434 18.624C518.744 18.2187 519.176 17.9093 519.73 17.696C520.296 17.472 520.962 17.36 521.73 17.36C522.306 17.36 522.888 17.424 523.474 17.552C524.061 17.68 524.546 17.8613 524.93 18.096L524.162 19.616C523.757 19.3707 523.346 19.2053 522.93 19.12C522.525 19.024 522.12 18.976 521.714 18.976C521.106 18.976 520.653 19.0667 520.354 19.248C520.066 19.4293 519.922 19.6587 519.922 19.936C519.922 20.192 520.018 20.384 520.21 20.512C520.402 20.64 520.653 20.7413 520.962 20.816C521.272 20.8907 521.613 20.9547 521.986 21.008C522.37 21.0507 522.749 21.12 523.122 21.216C523.496 21.312 523.837 21.4453 524.146 21.616C524.466 21.776 524.722 22.0053 524.914 22.304C525.106 22.6027 525.202 22.992 525.202 23.472C525.202 24.0053 525.042 24.4693 524.722 24.864C524.413 25.2587 523.97 25.568 523.394 25.792C522.818 26.0053 522.13 26.112 521.33 26.112Z" fill="#757575"/>
<path d="M529.812 19.6089L533.274 23.0713L536.737 19.6089" stroke="#757575" stroke-width="1.6"/>
<rect x="1010.05" width="41" height="40" rx="20" fill="#C3DCE3"/>
<path d="M1024.28 26L1029.27 14.8H1031.83L1036.84 26H1034.12L1030.02 16.112H1031.05L1026.93 26H1024.28ZM1026.77 23.6L1027.46 21.632H1033.22L1033.93 23.6H1026.77Z" fill="#2B788B"/>
<path d="M1060.97 26L1066.01 14.8H1068.06L1073.11 26H1070.94L1066.6 15.904H1067.43L1063.11 26H1060.97ZM1063.29 23.408L1063.85 21.776H1069.9L1070.46 23.408H1063.29ZM1073.7 26V14.128H1075.7V26H1073.7ZM1081.7 26.112C1080.76 26.112 1079.92 25.9253 1079.21 25.552C1078.5 25.168 1077.96 24.6453 1077.56 23.984C1077.18 23.3227 1076.98 22.5707 1076.98 21.728C1076.98 20.8747 1077.17 20.1227 1077.54 19.472C1077.93 18.8107 1078.45 18.2933 1079.11 17.92C1079.78 17.5467 1080.55 17.36 1081.4 17.36C1082.23 17.36 1082.97 17.5413 1083.62 17.904C1084.28 18.2667 1084.79 18.7787 1085.16 19.44C1085.53 20.1013 1085.72 20.88 1085.72 21.776C1085.72 21.8613 1085.72 21.9573 1085.7 22.064C1085.7 22.1707 1085.7 22.272 1085.69 22.368H1078.57V21.04H1084.63L1083.85 21.456C1083.86 20.9653 1083.76 20.5333 1083.54 20.16C1083.33 19.7867 1083.04 19.4933 1082.66 19.28C1082.3 19.0667 1081.88 18.96 1081.4 18.96C1080.91 18.96 1080.48 19.0667 1080.1 19.28C1079.74 19.4933 1079.45 19.792 1079.24 20.176C1079.04 20.5493 1078.94 20.992 1078.94 21.504V21.824C1078.94 22.336 1079.05 22.7893 1079.29 23.184C1079.52 23.5787 1079.85 23.8827 1080.28 24.096C1080.71 24.3093 1081.2 24.416 1081.75 24.416C1082.23 24.416 1082.66 24.3413 1083.05 24.192C1083.43 24.0427 1083.77 23.808 1084.07 23.488L1085.14 24.72C1084.76 25.168 1084.28 25.5147 1083.69 25.76C1083.11 25.9947 1082.45 26.112 1081.7 26.112ZM1085.6 26L1089.36 21.104L1089.33 22.176L1085.74 17.456H1087.97L1090.48 20.816H1089.63L1092.16 17.456H1094.32L1090.7 22.176L1090.72 21.104L1094.46 26H1092.21L1089.57 22.432L1090.4 22.544L1087.81 26H1085.6Z" fill="#757575"/>
<path d="M1130.06 26.192C1129.16 26.192 1128.3 26.0747 1127.48 25.84C1126.66 25.5947 1126 25.28 1125.5 24.896L1126.38 22.944C1126.86 23.2853 1127.42 23.568 1128.07 23.792C1128.73 24.0053 1129.4 24.112 1130.07 24.112C1130.58 24.112 1130.99 24.064 1131.3 23.968C1131.62 23.8613 1131.86 23.7173 1132.01 23.536C1132.16 23.3547 1132.23 23.1467 1132.23 22.912C1132.23 22.6133 1132.11 22.3787 1131.88 22.208C1131.64 22.0267 1131.34 21.8827 1130.95 21.776C1130.57 21.6587 1130.14 21.552 1129.67 21.456C1129.21 21.3493 1128.75 21.2213 1128.28 21.072C1127.82 20.9227 1127.4 20.7307 1127.02 20.496C1126.63 20.2613 1126.32 19.952 1126.07 19.568C1125.84 19.184 1125.72 18.6933 1125.72 18.096C1125.72 17.456 1125.89 16.8747 1126.23 16.352C1126.58 15.8187 1127.11 15.3973 1127.8 15.088C1128.5 14.768 1129.38 14.608 1130.44 14.608C1131.14 14.608 1131.84 14.6933 1132.52 14.864C1133.2 15.024 1133.8 15.2693 1134.33 15.6L1133.53 17.568C1133 17.2693 1132.48 17.0507 1131.96 16.912C1131.44 16.7627 1130.92 16.688 1130.42 16.688C1129.92 16.688 1129.51 16.7467 1129.19 16.864C1128.87 16.9813 1128.64 17.136 1128.5 17.328C1128.36 17.5093 1128.3 17.7227 1128.3 17.968C1128.3 18.256 1128.41 18.4907 1128.65 18.672C1128.88 18.8427 1129.19 18.9813 1129.58 19.088C1129.96 19.1947 1130.38 19.3013 1130.84 19.408C1131.31 19.5147 1131.77 19.6373 1132.23 19.776C1132.7 19.9147 1133.13 20.1013 1133.51 20.336C1133.9 20.5707 1134.2 20.88 1134.44 21.264C1134.68 21.648 1134.81 22.1333 1134.81 22.72C1134.81 23.3493 1134.63 23.9253 1134.28 24.448C1133.93 24.9707 1133.4 25.392 1132.7 25.712C1132 26.032 1131.12 26.192 1130.06 26.192ZM1135.76 26V17.392H1138.26V26H1135.76ZM1137.01 16.192C1136.55 16.192 1136.18 16.0587 1135.89 15.792C1135.6 15.5253 1135.46 15.1947 1135.46 14.8C1135.46 14.4053 1135.6 14.0747 1135.89 13.808C1136.18 13.5413 1136.55 13.408 1137.01 13.408C1137.47 13.408 1137.84 13.536 1138.13 13.792C1138.42 14.0373 1138.56 14.3573 1138.56 14.752C1138.56 15.168 1138.42 15.5147 1138.13 15.792C1137.85 16.0587 1137.48 16.192 1137.01 16.192ZM1143.98 29.232C1143.17 29.232 1142.39 29.1307 1141.63 28.928C1140.88 28.736 1140.26 28.4427 1139.76 28.048L1140.75 26.256C1141.11 26.5547 1141.57 26.7893 1142.13 26.96C1142.69 27.1413 1143.25 27.232 1143.79 27.232C1144.68 27.232 1145.32 27.0347 1145.71 26.64C1146.12 26.2453 1146.32 25.6587 1146.32 24.88V23.584L1146.48 21.424L1146.45 19.248V17.392H1148.82V24.56C1148.82 26.16 1148.4 27.3387 1147.57 28.096C1146.74 28.8533 1145.54 29.232 1143.98 29.232ZM1143.6 25.584C1142.8 25.584 1142.07 25.4133 1141.42 25.072C1140.78 24.72 1140.27 24.2347 1139.87 23.616C1139.49 22.9867 1139.3 22.256 1139.3 21.424C1139.3 20.5813 1139.49 19.8507 1139.87 19.232C1140.27 18.6027 1140.78 18.1173 1141.42 17.776C1142.07 17.4347 1142.8 17.264 1143.6 17.264C1144.32 17.264 1144.96 17.4133 1145.52 17.712C1146.07 18 1146.51 18.4533 1146.82 19.072C1147.12 19.68 1147.28 20.464 1147.28 21.424C1147.28 22.3733 1147.12 23.1573 1146.82 23.776C1146.51 24.384 1146.07 24.8373 1145.52 25.136C1144.96 25.4347 1144.32 25.584 1143.6 25.584ZM1144.1 23.536C1144.53 23.536 1144.92 23.4507 1145.26 23.28C1145.6 23.0987 1145.87 22.848 1146.06 22.528C1146.26 22.208 1146.35 21.84 1146.35 21.424C1146.35 20.9973 1146.26 20.6293 1146.06 20.32C1145.87 20 1145.6 19.7547 1145.26 19.584C1144.92 19.4027 1144.53 19.312 1144.1 19.312C1143.66 19.312 1143.27 19.4027 1142.93 19.584C1142.59 19.7547 1142.31 20 1142.11 20.32C1141.92 20.6293 1141.82 20.9973 1141.82 21.424C1141.82 21.84 1141.92 22.208 1142.11 22.528C1142.31 22.848 1142.59 23.0987 1142.93 23.28C1143.27 23.4507 1143.66 23.536 1144.1 23.536ZM1155.73 17.264C1156.41 17.264 1157.02 17.4027 1157.55 17.68C1158.1 17.9467 1158.53 18.3627 1158.83 18.928C1159.14 19.4827 1159.3 20.1973 1159.3 21.072V26H1156.8V21.456C1156.8 20.7627 1156.65 20.2507 1156.34 19.92C1156.04 19.5893 1155.61 19.424 1155.06 19.424C1154.66 19.424 1154.31 19.5093 1153.99 19.68C1153.68 19.84 1153.43 20.0907 1153.25 20.432C1153.08 20.7733 1152.99 21.2107 1152.99 21.744V26H1150.5V17.392H1152.88V19.776L1152.43 19.056C1152.74 18.48 1153.19 18.0373 1153.76 17.728C1154.34 17.4187 1154.99 17.264 1155.73 17.264ZM1164.99 26V14.8H1167.58V26H1164.99ZM1174.65 17.264C1175.34 17.264 1175.94 17.4027 1176.48 17.68C1177.02 17.9467 1177.45 18.3627 1177.76 18.928C1178.07 19.4827 1178.22 20.1973 1178.22 21.072V26H1175.73V21.456C1175.73 20.7627 1175.57 20.2507 1175.26 19.92C1174.96 19.5893 1174.54 19.424 1173.98 19.424C1173.59 19.424 1173.23 19.5093 1172.91 19.68C1172.6 19.84 1172.36 20.0907 1172.17 20.432C1172 20.7733 1171.92 21.2107 1171.92 21.744V26H1169.42V17.392H1171.81V19.776L1171.36 19.056C1171.67 18.48 1172.11 18.0373 1172.69 17.728C1173.26 17.4187 1173.92 17.264 1174.65 17.264Z" fill="black"/>
</svg>
